<svg xmlns="http://www.w3.org/2000/svg" version="1.1" xmlns:xlink="http://www.w3.org/1999/xlink" xmlns:svgjs="http://svgjs.com/svgjs" width="1440" height="560" preserveAspectRatio="none" viewBox="0 0 1440 560">
    <g mask="url(&quot;#SvgjsMask1006&quot;)" fill="none">
        <rect width="1440" height="560" x="0" y="0" fill="rgba(31, 21, 65, 1)"></rect>
        <path d="M1488 560L0 560 L0 349.54Q28.49 306.03, 72 334.53Q122.31 264.84, 192 315.15Q269.57 272.72, 312 350.29Q340.92 307.21, 384 336.13Q411.06 291.19, 456 318.24Q499.03 241.27, 576 284.3Q664.3 252.6, 696 340.89Q773.82 298.71, 816 376.53Q836.07 276.6, 936 296.66Q978.95 267.61, 1008 310.56Q1097.97 280.53, 1128 370.5Q1163.89 286.39, 1248 322.29Q1322.83 277.12, 1368 351.94Q1395.93 259.88, 1488 287.81z" fill="#182f5d"></path>
        <path d="M1560 560L0 560 L0 393.91Q71.93 345.84, 120 417.77Q190.21 367.98, 240 438.18Q281.28 359.46, 360 400.74Q430.52 351.26, 480 421.78Q522.93 392.71, 552 435.64Q593.61 405.25, 624 446.86Q636.47 339.33, 744 351.8Q810.8 298.6, 864 365.4Q916.56 345.96, 936 398.52Q990.79 333.31, 1056 388.1Q1110.73 370.84, 1128 425.57Q1155.1 332.66, 1248 359.76Q1313.68 305.44, 1368 371.13Q1440.97 372.1, 1440 445.07Q1490.05 375.12, 1560 425.17z" fill="#25467d"></path>
        <path d="M1512 560L0 560 L0 425.77Q61.27 415.04, 72 476.32Q148.58 432.9, 192 509.49Q195.53 441.02, 264 444.56Q294.75 403.31, 336 434.06Q366.68 392.74, 408 423.41Q514.18 409.6, 528 515.78Q562.11 429.89, 648 464Q662.68 406.69, 720 421.37Q762.62 391.99, 792 434.61Q836.63 407.25, 864 451.88Q914.76 430.64, 936 481.4Q977.52 450.92, 1008 492.45Q1049.56 414.01, 1128 455.57Q1171.72 427.29, 1200 471.02Q1239.63 390.65, 1320 430.29Q1362.78 401.07, 1392 443.85Q1465.59 397.44, 1512 471.03z" fill="#356cb1"></path>
        <path d="M1560 560L0 560 L0 573.62Q21 522.62, 72 543.62Q85.74 485.36, 144 499.1Q215.17 450.27, 264 521.44Q327.56 513, 336 576.56Q401.7 522.26, 456 587.96Q474.25 534.21, 528 552.45Q560.88 465.33, 648 498.2Q691.49 469.69, 720 513.18Q807.35 480.52, 840 567.87Q857.36 513.23, 912 530.59Q955.58 454.17, 1032 497.76Q1092.05 485.81, 1104 545.86Q1128.03 497.88, 1176 521.91Q1222.59 448.5, 1296 495.09Q1352.64 479.74, 1368 536.38Q1422.82 519.19, 1440 574.01Q1475.7 489.71, 1560 525.41z" fill="white"></path>
    </g>
    <defs>
        <mask id="SvgjsMask1006">
            <rect width="1440" height="560" fill="#ffffff"></rect>
        </mask>
    </defs>
</svg>