<svg xmlns="http://www.w3.org/2000/svg" version="1.1" xmlns:xlink="http://www.w3.org/1999/xlink" xmlns:svgjs="http://svgjs.com/svgjs" width="1440" height="560" preserveAspectRatio="none" viewBox="0 0 1440 560"><g mask="url(&quot;#SvgjsMask1061&quot;)" fill="none"><rect width="1440" height="560" x="0" y="0" fill="rgba(87, 23, 147, 1)"></rect><path d="M0,574.781C119.325,588.64,251.275,613.183,352.05,547.8C452.759,482.459,493.566,354.563,519.932,237.445C543.052,134.746,524.692,29.19,491.277,-70.635C462.063,-157.909,403.139,-227.57,341.421,-295.843C280.94,-362.748,222.301,-436.99,136.104,-463.528C49.446,-490.208,-43.811,-470.647,-129.433,-440.809C-212.056,-412.016,-272.503,-349.288,-342.471,-296.752C-433.213,-228.617,-556.666,-190.767,-601.351,-86.461C-648.714,24.096,-640.498,160.538,-583.821,266.622C-528.09,370.935,-407.736,416.496,-303.145,471.702C-206.806,522.553,-108.209,562.213,0,574.781" fill="#390f60"></path><path d="M1440 1156.232C1551.995 1152 1664.692 1114.172 1747.872 1039.059 1825.616 968.855 1844.714 859.4100000000001 1878.501 760.2570000000001 1908.939 670.931 1933.542 583.127 1935.383 488.775 1937.52 379.26800000000003 1962.5149999999999 252.15800000000002 1890.018 170.05700000000002 1817.507 87.93900000000002 1685.124 113.92000000000002 1579.315 85.536 1476.639 57.99200000000002 1375.772-34.22000000000003 1277.2350000000001 5.673000000000002 1177.435 46.077999999999975 1178.4180000000001 190.983 1111.1689999999999 275.067 1047.816 354.28 917.272 382.581 896.402 481.842 875.604 580.762 974.12 661.877 1009.969 756.389 1049.136 859.6469999999999 1035.926 987.703 1116.804 1062.903 1200.622 1140.837 1325.63 1160.5529999999999 1440 1156.232" fill="#761fc6"></path></g><defs><mask id="SvgjsMask1061"><rect width="1440" height="560" fill="#ffffff"></rect></mask></defs></svg>