<svg id="visual" viewBox="0 0 900 600" width="900" height="600" xmlns="http://www.w3.org/2000/svg" xmlns:xlink="http://www.w3.org/1999/xlink" version="1.1"><rect x="0" y="0" width="900" height="600" fill="#001220"></rect><path d="M0 224L21.5 217.7C43 211.3 86 198.7 128.8 197.2C171.7 195.7 214.3 205.3 257.2 202.5C300 199.7 343 184.3 385.8 186C428.7 187.7 471.3 206.3 514.2 214.7C557 223 600 221 642.8 216.5C685.7 212 728.3 205 771.2 203.2C814 201.3 857 204.7 878.5 206.3L900 208L900 0L878.5 0C857 0 814 0 771.2 0C728.3 0 685.7 0 642.8 0C600 0 557 0 514.2 0C471.3 0 428.7 0 385.8 0C343 0 300 0 257.2 0C214.3 0 171.7 0 128.8 0C86 0 43 0 21.5 0L0 0Z" fill="#ffffff"></path><path d="M0 139L21.5 146.3C43 153.7 86 168.3 128.8 167.8C171.7 167.3 214.3 151.7 257.2 153.2C300 154.7 343 173.3 385.8 180C428.7 186.7 471.3 181.3 514.2 177C557 172.7 600 169.3 642.8 171.3C685.7 173.3 728.3 180.7 771.2 178.8C814 177 857 166 878.5 160.5L900 155L900 0L878.5 0C857 0 814 0 771.2 0C728.3 0 685.7 0 642.8 0C600 0 557 0 514.2 0C471.3 0 428.7 0 385.8 0C343 0 300 0 257.2 0C214.3 0 171.7 0 128.8 0C86 0 43 0 21.5 0L0 0Z" fill="#f7cdd7"></path><path d="M0 141L21.5 132.7C43 124.3 86 107.7 128.8 102.2C171.7 96.7 214.3 102.3 257.2 112.2C300 122 343 136 385.8 134C428.7 132 471.3 114 514.2 105.3C557 96.7 600 97.3 642.8 104C685.7 110.7 728.3 123.3 771.2 130.3C814 137.3 857 138.7 878.5 139.3L900 140L900 0L878.5 0C857 0 814 0 771.2 0C728.3 0 685.7 0 642.8 0C600 0 557 0 514.2 0C471.3 0 428.7 0 385.8 0C343 0 300 0 257.2 0C214.3 0 171.7 0 128.8 0C86 0 43 0 21.5 0L0 0Z" fill="#ea9bb0"></path><path d="M0 67L21.5 70C43 73 86 79 128.8 84C171.7 89 214.3 93 257.2 97C300 101 343 105 385.8 107.8C428.7 110.7 471.3 112.3 514.2 108.2C557 104 600 94 642.8 92.3C685.7 90.7 728.3 97.3 771.2 98.8C814 100.3 857 96.7 878.5 94.8L900 93L900 0L878.5 0C857 0 814 0 771.2 0C728.3 0 685.7 0 642.8 0C600 0 557 0 514.2 0C471.3 0 428.7 0 385.8 0C343 0 300 0 257.2 0C214.3 0 171.7 0 128.8 0C86 0 43 0 21.5 0L0 0Z" fill="#da678b"></path><path d="M0 41L21.5 43.3C43 45.7 86 50.3 128.8 50.3C171.7 50.3 214.3 45.7 257.2 41.5C300 37.3 343 33.7 385.8 32.7C428.7 31.7 471.3 33.3 514.2 39.3C557 45.3 600 55.7 642.8 55C685.7 54.3 728.3 42.7 771.2 41.7C814 40.7 857 50.3 878.5 55.2L900 60L900 0L878.5 0C857 0 814 0 771.2 0C728.3 0 685.7 0 642.8 0C600 0 557 0 514.2 0C471.3 0 428.7 0 385.8 0C343 0 300 0 257.2 0C214.3 0 171.7 0 128.8 0C86 0 43 0 21.5 0L0 0Z" fill="#c62368"></path></svg>