<svg id="visual" viewBox="0 0 900 600" width="900" height="600" xmlns="http://www.w3.org/2000/svg" xmlns:xlink="http://www.w3.org/1999/xlink" version="1.1"><rect x="0" y="0" width="900" height="600" fill="#f8f9fc"></rect><defs><linearGradient id="grad1_0" x1="33.3%" y1="0%" x2="100%" y2="100%"><stop offset="20%" stop-color="#f8f9fc" stop-opacity="1"></stop><stop offset="80%" stop-color="#f8f9fc" stop-opacity="1"></stop></linearGradient></defs><defs><linearGradient id="grad2_0" x1="0%" y1="0%" x2="66.7%" y2="100%"><stop offset="20%" stop-color="#f8f9fc" stop-opacity="1"></stop><stop offset="80%" stop-color="#f8f9fc" stop-opacity="1"></stop></linearGradient></defs><g transform="translate(900, 0)"><path d="M0 351.5C-32.3 332 -64.6 312.5 -97.3 299.6C-130.1 286.6 -163.2 280.3 -192.2 264.5C-221.2 248.8 -246.1 223.7 -271 196.9C-295.9 170.1 -320.9 141.7 -334.3 108.6C-347.8 75.5 -349.7 37.8 -351.5 0L0 0Z" fill="#C62368"></path></g><g transform="translate(0, 600)"><path d="M0 -351.5C35.4 -339.8 70.8 -328.1 100.7 -310C130.7 -292 155.2 -267.7 178.7 -245.9C202.1 -224.2 224.5 -205.1 253.2 -184C281.9 -162.8 316.9 -139.6 334.3 -108.6C351.8 -77.6 351.7 -38.8 351.5 0L0 0Z" fill="#C62368"></path></g></svg>